<svg width="91" height="55" viewBox="0 0 91 55" fill="none" xmlns="http://www.w3.org/2000/svg">
<path d="M12.2278 0.0244751V29.1154H8.70505V0.0244751H12.2278Z" fill="white"/>
<path d="M29.4493 11.729L26.438 12.5813C26.2486 12.0794 25.9692 11.5917 25.5999 11.1182C25.24 10.6353 24.7476 10.2376 24.1226 9.92505C23.4976 9.61255 22.6974 9.4563 21.722 9.4563C20.3868 9.4563 19.2741 9.76407 18.384 10.3796C17.5033 10.9857 17.063 11.7574 17.063 12.6949C17.063 13.5283 17.366 14.1864 17.972 14.6694C18.5781 15.1523 19.5251 15.5548 20.813 15.8768L24.0516 16.6722C26.0023 17.1457 27.4559 17.8701 28.4124 18.8455C29.3688 19.8114 29.847 21.0567 29.847 22.5813C29.847 23.8313 29.4872 24.9487 28.7675 25.9336C28.0573 26.9184 27.063 27.6949 25.7845 28.2631C24.5061 28.8313 23.0194 29.1154 21.3243 29.1154C19.0989 29.1154 17.2571 28.6325 15.7987 27.6665C14.3404 26.7006 13.4171 25.2896 13.0289 23.4336L16.2107 22.6381C16.5137 23.8124 17.0866 24.6931 17.9294 25.2802C18.7817 25.8673 19.8944 26.1609 21.2675 26.1609C22.83 26.1609 24.0705 25.8294 24.9891 25.1665C25.9171 24.4942 26.3811 23.6893 26.3811 22.7518C26.3811 21.9942 26.116 21.3597 25.5857 20.8484C25.0554 20.3275 24.241 19.9393 23.1425 19.6836L19.5061 18.8313C17.508 18.3578 16.0402 17.6239 15.1027 16.6296C14.1747 15.6258 13.7107 14.3711 13.7107 12.8654C13.7107 11.6343 14.0563 10.5453 14.7476 9.59835C15.4484 8.65138 16.4001 7.908 17.6027 7.36823C18.8148 6.82846 20.188 6.55857 21.722 6.55857C23.8811 6.55857 25.5762 7.03206 26.8073 7.97903C28.0478 8.926 28.9285 10.176 29.4493 11.729Z" fill="white"/>
<path d="M38.1178 29.6836C36.7353 29.6836 35.4805 29.4232 34.3536 28.9023C33.2267 28.372 32.3319 27.6097 31.669 26.6154C31.0061 25.6116 30.6747 24.3995 30.6747 22.979C30.6747 21.729 30.9209 20.7158 31.4133 19.9393C31.9057 19.1533 32.5639 18.5377 33.3877 18.0927C34.2116 17.6476 35.1207 17.3162 36.115 17.0984C37.1188 16.8711 38.1273 16.6912 39.1406 16.5586C40.4663 16.3881 41.5411 16.2603 42.365 16.1751C43.1983 16.0804 43.8044 15.9241 44.1832 15.7063C44.5714 15.4885 44.7656 15.1097 44.7656 14.5699V14.4563C44.7656 13.0548 44.382 11.9658 43.615 11.1893C42.8574 10.4127 41.7069 10.0245 40.1633 10.0245C38.5629 10.0245 37.3082 10.3749 36.3991 11.0756C35.49 11.7764 34.8508 12.5245 34.4815 13.3199L31.2997 12.1836C31.8678 10.8578 32.6254 9.82562 33.5724 9.08699C34.5288 8.33888 35.5705 7.81805 36.6974 7.52449C37.8338 7.22146 38.9512 7.06994 40.0497 7.06994C40.7504 7.06994 41.5553 7.15517 42.4644 7.32562C43.383 7.48661 44.2684 7.82278 45.1207 8.33414C45.9824 8.84551 46.6974 9.61729 47.2656 10.6495C47.8338 11.6817 48.1178 13.0643 48.1178 14.7972V29.1722H44.7656V26.2177H44.5951C44.3678 26.6912 43.9891 27.1978 43.4588 27.7376C42.9284 28.2773 42.223 28.7366 41.3423 29.1154C40.4616 29.4942 39.3868 29.6836 38.1178 29.6836ZM38.6292 26.6722C39.955 26.6722 41.0724 26.4118 41.9815 25.891C42.9 25.3701 43.5913 24.6978 44.0553 23.8739C44.5288 23.0501 44.7656 22.1836 44.7656 21.2745V18.2063C44.6235 18.3768 44.311 18.533 43.8281 18.6751C43.3546 18.8076 42.8053 18.926 42.1803 19.0302C41.5648 19.1249 40.9635 19.2101 40.3764 19.2859C39.7987 19.3521 39.33 19.409 38.9701 19.4563C38.0989 19.5699 37.2845 19.7546 36.5269 20.0103C35.7788 20.2565 35.1728 20.6306 34.7087 21.1324C34.2542 21.6249 34.0269 22.2972 34.0269 23.1495C34.0269 24.3143 34.4578 25.195 35.3195 25.7915C36.1908 26.3787 37.294 26.6722 38.6292 26.6722Z" fill="white"/>
<path d="M78.2041 29.6836C76.1586 29.6836 74.3973 29.2006 72.92 28.2347C71.4427 27.2688 70.3064 25.9383 69.5109 24.2432C68.7155 22.5482 68.3177 20.6116 68.3177 18.4336C68.3177 16.2177 68.7249 14.2622 69.5393 12.5671C70.3632 10.8626 71.509 9.53206 72.9768 8.57562C74.4541 7.60971 76.1776 7.12676 78.1473 7.12676C79.6814 7.12676 81.064 7.41085 82.295 7.97903C83.5261 8.54721 84.5346 9.34267 85.3206 10.3654C86.1066 11.3881 86.5943 12.5813 86.7837 13.9449H83.4314C83.1757 12.9506 82.6075 12.0699 81.7268 11.3029C80.8556 10.5264 79.6814 10.1381 78.2041 10.1381C76.8973 10.1381 75.7514 10.479 74.7666 11.1608C73.7912 11.8332 73.0289 12.7849 72.4797 14.016C71.9399 15.2376 71.67 16.6722 71.67 18.3199C71.67 20.0056 71.9352 21.4734 72.4655 22.7234C73.0052 23.9734 73.7628 24.944 74.7382 25.6353C75.7231 26.3266 76.8783 26.6722 78.2041 26.6722C79.0753 26.6722 79.866 26.5207 80.5763 26.2177C81.2865 25.9146 81.8878 25.479 82.3802 24.9109C82.8727 24.3427 83.223 23.6609 83.4314 22.8654H86.7837C86.5943 24.1533 86.1255 25.3133 85.3774 26.3455C84.6388 27.3682 83.6586 28.1826 82.4371 28.7887C81.2249 29.3853 79.8139 29.6836 78.2041 29.6836Z" fill="white"/>
<path d="M59.6263 29.6836C61.0088 29.6836 62.2635 29.4232 63.3904 28.9023C64.5173 28.372 65.4122 27.6097 66.075 26.6154C66.7379 25.6116 67.0694 24.3995 67.0694 22.979C67.0694 21.729 66.8232 20.7158 66.3307 19.9393C65.8383 19.1533 65.1802 18.5377 64.3563 18.0927C63.5325 17.6476 62.6234 17.3162 61.6291 17.0984C60.6253 16.8711 59.6168 16.6912 58.6035 16.5586C57.2778 16.3881 56.203 16.2603 55.3792 16.1751C54.5458 16.0804 53.9398 15.9241 53.561 15.7063C53.1727 15.4885 52.9786 15.1097 52.9786 14.5699V14.4563C52.9786 13.0548 53.3621 11.9658 54.1292 11.1893C54.8867 10.4127 56.0373 10.0245 57.5808 10.0245C59.1812 10.0245 60.4359 10.3749 61.345 11.0756C62.2541 11.7764 62.8933 12.5245 63.2626 13.3199L66.4444 12.1836C65.8762 10.8578 65.1186 9.82562 64.1717 9.08699C63.2152 8.33888 62.1736 7.81805 61.0467 7.52449C59.9103 7.22145 58.7929 7.06994 57.6945 7.06994C56.9937 7.06994 56.1888 7.15517 55.2797 7.32562C54.3612 7.48661 53.4758 7.82278 52.6235 8.33414C51.7618 8.84551 51.0468 9.61729 50.4786 10.6495C49.9105 11.6817 49.6264 13.0643 49.6264 14.7972V29.1722H52.9786V26.2177H53.1491C53.3763 26.6912 53.7551 27.1978 54.2854 27.7376C54.8157 28.2773 55.5212 28.7366 56.4019 29.1154C57.2825 29.4942 58.3573 29.6836 59.6263 29.6836ZM59.1149 26.6722C57.7892 26.6722 56.6718 26.4118 55.7627 25.891C54.8441 25.3701 54.1528 24.6978 53.6888 23.8739C53.2154 23.0501 52.9786 22.1836 52.9786 21.2745V18.2063C53.1207 18.3768 53.4332 18.533 53.9161 18.6751C54.3896 18.8076 54.9388 18.926 55.5638 19.0302C56.1793 19.1249 56.7807 19.2101 57.3678 19.2859C57.9454 19.3521 58.4142 19.409 58.774 19.4563C59.6452 19.5699 60.4596 19.7546 61.2172 20.0103C61.9652 20.2565 62.5713 20.6306 63.0353 21.1324C63.4899 21.6249 63.7171 22.2972 63.7171 23.1495C63.7171 24.3143 63.2863 25.195 62.4245 25.7915C61.5533 26.3787 60.4501 26.6722 59.1149 26.6722Z" fill="white"/>
<path d="M21.3145 42.0638C21.3145 44.5184 20.8713 46.6396 19.985 48.4274C19.0986 50.2153 17.8827 51.5941 16.3373 52.5638C14.7918 53.5335 13.0266 54.0183 11.0418 54.0183C9.05695 54.0183 7.2918 53.5335 5.74635 52.5638C4.20089 51.5941 2.98498 50.2153 2.09862 48.4274C1.21226 46.6396 0.769073 44.5184 0.769073 42.0638C0.769073 39.6093 1.21226 37.488 2.09862 35.7002C2.98498 33.9123 4.20089 32.5335 5.74635 31.5638C7.2918 30.5941 9.05695 30.1093 11.0418 30.1093C13.0266 30.1093 14.7918 30.5941 16.3373 31.5638C17.8827 32.5335 19.0986 33.9123 19.985 35.7002C20.8713 37.488 21.3145 39.6093 21.3145 42.0638ZM18.5873 42.0638C18.5873 40.0487 18.2501 38.3479 17.5759 36.9615C16.9092 35.5752 16.0039 34.5259 14.86 33.8138C13.7236 33.1017 12.4509 32.7456 11.0418 32.7456C9.63271 32.7456 8.35619 33.1017 7.21226 33.8138C6.07589 34.5259 5.17059 35.5752 4.49635 36.9615C3.82968 38.3479 3.49635 40.0487 3.49635 42.0638C3.49635 44.079 3.82968 45.7797 4.49635 47.1661C5.17059 48.5524 6.07589 49.6017 7.21226 50.3138C8.35619 51.0259 9.63271 51.382 11.0418 51.382C12.4509 51.382 13.7236 51.0259 14.86 50.3138C16.0039 49.6017 16.9092 48.5524 17.5759 47.1661C18.2501 45.7797 18.5873 44.079 18.5873 42.0638Z" fill="white"/>
<path d="M22.6895 53.7002V36.2456H25.2804V38.9729H25.5077C25.8713 38.0411 26.4585 37.3176 27.2691 36.8024C28.0797 36.2797 29.0532 36.0183 30.1895 36.0183C31.341 36.0183 32.2994 36.2797 33.0645 36.8024C33.8373 37.3176 34.4395 38.0411 34.8713 38.9729H35.0532C35.5001 38.0714 36.1706 37.3555 37.0645 36.8252C37.9585 36.2873 39.0304 36.0183 40.2804 36.0183C41.841 36.0183 43.1176 36.507 44.11 37.4843C45.1024 38.454 45.5986 39.9653 45.5986 42.0183V53.7002H42.9168V42.0183C42.9168 40.7305 42.5645 39.81 41.86 39.257C41.1554 38.704 40.3259 38.4274 39.3713 38.4274C38.1441 38.4274 37.1933 38.7987 36.5191 39.5411C35.8448 40.2759 35.5077 41.2077 35.5077 42.3365V53.7002H32.7804V41.7456C32.7804 40.7532 32.4585 39.954 31.8145 39.3479C31.1706 38.7343 30.341 38.4274 29.3259 38.4274C28.6289 38.4274 27.9774 38.613 27.3713 38.9843C26.7729 39.3555 26.288 39.8706 25.9168 40.5297C25.5532 41.1812 25.3713 41.935 25.3713 42.7911V53.7002H22.6895Z" fill="white"/>
<path d="M57.502 46.5638V36.2456H60.1838V53.7002H57.502V50.7456H57.3202C56.9111 51.632 56.2748 52.3858 55.4111 53.007C54.5475 53.6206 53.4566 53.9274 52.1384 53.9274C51.0475 53.9274 50.0778 53.6888 49.2293 53.2115C48.3808 52.7267 47.7141 51.9994 47.2293 51.0297C46.7445 50.0524 46.502 48.8214 46.502 47.3365V36.2456H49.1838V47.1547C49.1838 48.4274 49.5399 49.4426 50.252 50.2002C50.9717 50.9577 51.8884 51.3365 53.002 51.3365C53.6687 51.3365 54.3467 51.1661 55.0361 50.8252C55.7331 50.4843 56.3164 49.9615 56.7861 49.257C57.2634 48.5524 57.502 47.6547 57.502 46.5638Z" fill="white"/>
<path d="M69.414 54.0638C67.7321 54.0638 66.2814 53.6926 65.0617 52.9502C63.8496 52.2002 62.914 51.1547 62.2549 49.8138C61.6034 48.4653 61.2776 46.8971 61.2776 45.1093C61.2776 43.3214 61.6034 41.7456 62.2549 40.382C62.914 39.0108 63.8306 37.9426 65.0049 37.1774C66.1867 36.4047 67.5655 36.0183 69.1412 36.0183C70.0503 36.0183 70.948 36.1699 71.8344 36.4729C72.7208 36.7759 73.5276 37.2683 74.2549 37.9502C74.9821 38.6244 75.5617 39.5184 75.9935 40.632C76.4253 41.7456 76.6412 43.1168 76.6412 44.7456V45.882H63.1867V43.5638H73.914C73.914 42.579 73.717 41.7002 73.3231 40.9274C72.9367 40.1547 72.3837 39.5449 71.664 39.0979C70.9518 38.6509 70.1109 38.4274 69.1412 38.4274C68.0731 38.4274 67.1488 38.6926 66.3685 39.2229C65.5958 39.7456 65.0011 40.4274 64.5844 41.2683C64.1677 42.1093 63.9594 43.0108 63.9594 43.9729V45.5183C63.9594 46.8365 64.1867 47.954 64.6412 48.8706C65.1034 49.7797 65.7435 50.4729 66.5617 50.9502C67.3799 51.4199 68.3306 51.6547 69.414 51.6547C70.1185 51.6547 70.7549 51.5562 71.3231 51.3593C71.8988 51.1547 72.395 50.8517 72.8117 50.4502C73.2284 50.0411 73.5503 49.5335 73.7776 48.9274L76.3685 49.6547C76.0958 50.5335 75.6374 51.3062 74.9935 51.9729C74.3496 52.632 73.5541 53.1471 72.6071 53.5183C71.6602 53.882 70.5958 54.0638 69.414 54.0638Z" fill="white"/>
<path d="M85.414 36.382L81.6867 38.5638L76.3685 38.6547V36.382H85.414ZM79.0049 32.2002H81.6867V48.8365C81.6867 49.5941 81.7965 50.1623 82.0162 50.5411C82.2435 50.9123 82.5314 51.1623 82.8799 51.2911C83.2359 51.4123 83.6109 51.4729 84.0049 51.4729C84.3003 51.4729 84.5427 51.4577 84.7321 51.4274C84.9215 51.3896 85.073 51.3593 85.1867 51.3365L85.7321 53.7456C85.5503 53.8138 85.2965 53.882 84.9708 53.9502C84.645 54.0259 84.2321 54.0638 83.7321 54.0638C82.9746 54.0638 82.2321 53.9009 81.5049 53.5752C80.7852 53.2494 80.1867 52.7532 79.7094 52.0865C79.2397 51.4199 79.0049 50.579 79.0049 49.5638V32.2002Z" fill="white"/>
<path d="M87.3458 53.7002V36.2456H90.0276V53.7002H87.3458Z" fill="white"/>
<path d="M88.6981 34.6661C88.1753 34.6661 87.7246 34.488 87.3458 34.132C86.9746 33.7759 86.789 33.3479 86.789 32.8479C86.789 32.3479 86.9746 31.9199 87.3458 31.5638C87.7246 31.2077 88.1753 31.0297 88.6981 31.0297C89.2208 31.0297 89.6678 31.2077 90.039 31.5638C90.4178 31.9199 90.6071 32.3479 90.6071 32.8479C90.6071 33.3479 90.4178 33.7759 90.039 34.132C89.6678 34.488 89.2208 34.6661 88.6981 34.6661Z" fill="#FF6B00"/>
<path d="M62.9216 43.5585H64.6935V45.8884H62.9216V43.5585Z" fill="white"/>
<path d="M78.5426 36.3823H81.7113V38.6004H78.5426V36.3823Z" fill="white"/>
</svg>
